<svg width="85" height="185" viewBox="0 0 85 185" fill="none" xmlns="http://www.w3.org/2000/svg">
<g id="Mask group">
<mask id="mask0_25_7391" style="mask-type:alpha" maskUnits="userSpaceOnUse" x="0" y="0" width="85" height="185">
<g id="Group 8">
<g id="Group 4">
<circle id="Ellipse 18" cx="5" cy="5" r="5" transform="matrix(4.37114e-08 1 1 -4.37114e-08 0 0)" fill="white"/>
<circle id="Ellipse 19" cx="5" cy="5" r="5" transform="matrix(4.37114e-08 1 1 -4.37114e-08 0 25)" fill="white"/>
<circle id="Ellipse 20" cx="5" cy="5" r="5" transform="matrix(4.37114e-08 1 1 -4.37114e-08 0 50)" fill="white"/>
<circle id="Ellipse 21" cx="5" cy="5" r="5" transform="matrix(4.37114e-08 1 1 -4.37114e-08 0 75)" fill="white"/>
<circle id="Ellipse 22" cx="5" cy="5" r="5" transform="matrix(4.37114e-08 1 1 -4.37114e-08 0 100)" fill="white"/>
<circle id="Ellipse 23" cx="5" cy="5" r="5" transform="matrix(4.37114e-08 1 1 -4.37114e-08 0 125)" fill="white"/>
<circle id="Ellipse 24" cx="5" cy="5" r="5" transform="matrix(4.37114e-08 1 1 -4.37114e-08 0 150)" fill="white"/>
<circle id="Ellipse 25" cx="5" cy="5" r="5" transform="matrix(4.37114e-08 1 1 -4.37114e-08 0 175)" fill="white"/>
</g>
<g id="Group 5">
<circle id="Ellipse 18_2" cx="5" cy="5" r="5" transform="matrix(4.37114e-08 1 1 -4.37114e-08 25 0)" fill="white"/>
<circle id="Ellipse 19_2" cx="5" cy="5" r="5" transform="matrix(4.37114e-08 1 1 -4.37114e-08 25 25)" fill="white"/>
<circle id="Ellipse 20_2" cx="5" cy="5" r="5" transform="matrix(4.37114e-08 1 1 -4.37114e-08 25 50)" fill="white"/>
<circle id="Ellipse 21_2" cx="5" cy="5" r="5" transform="matrix(4.37114e-08 1 1 -4.37114e-08 25 75)" fill="white"/>
<circle id="Ellipse 22_2" cx="5" cy="5" r="5" transform="matrix(4.37114e-08 1 1 -4.37114e-08 25 100)" fill="white"/>
<circle id="Ellipse 23_2" cx="5" cy="5" r="5" transform="matrix(4.37114e-08 1 1 -4.37114e-08 25 125)" fill="white"/>
<circle id="Ellipse 24_2" cx="5" cy="5" r="5" transform="matrix(4.37114e-08 1 1 -4.37114e-08 25 150)" fill="white"/>
<circle id="Ellipse 25_2" cx="5" cy="5" r="5" transform="matrix(4.37114e-08 1 1 -4.37114e-08 25 175)" fill="white"/>
</g>
<g id="Group 6">
<circle id="Ellipse 18_3" cx="5" cy="5" r="5" transform="matrix(4.37114e-08 1 1 -4.37114e-08 50 0)" fill="white"/>
<circle id="Ellipse 19_3" cx="5" cy="5" r="5" transform="matrix(4.37114e-08 1 1 -4.37114e-08 50 25)" fill="white"/>
<circle id="Ellipse 20_3" cx="5" cy="5" r="5" transform="matrix(4.37114e-08 1 1 -4.37114e-08 50 50)" fill="white"/>
<circle id="Ellipse 21_3" cx="5" cy="5" r="5" transform="matrix(4.37114e-08 1 1 -4.37114e-08 50 75)" fill="white"/>
<circle id="Ellipse 22_3" cx="5" cy="5" r="5" transform="matrix(4.37114e-08 1 1 -4.37114e-08 50 100)" fill="white"/>
<circle id="Ellipse 23_3" cx="5" cy="5" r="5" transform="matrix(4.37114e-08 1 1 -4.37114e-08 50 125)" fill="white"/>
<circle id="Ellipse 24_3" cx="5" cy="5" r="5" transform="matrix(4.37114e-08 1 1 -4.37114e-08 50 150)" fill="white"/>
<circle id="Ellipse 25_3" cx="5" cy="5" r="5" transform="matrix(4.37114e-08 1 1 -4.37114e-08 50 175)" fill="white"/>
</g>
<g id="Group 7">
<circle id="Ellipse 18_4" cx="5" cy="5" r="5" transform="matrix(4.37114e-08 1 1 -4.37114e-08 75 0)" fill="white"/>
<circle id="Ellipse 19_4" cx="5" cy="5" r="5" transform="matrix(4.37114e-08 1 1 -4.37114e-08 75 25)" fill="white"/>
<circle id="Ellipse 20_4" cx="5" cy="5" r="5" transform="matrix(4.37114e-08 1 1 -4.37114e-08 75 50)" fill="white"/>
<circle id="Ellipse 21_4" cx="5" cy="5" r="5" transform="matrix(4.37114e-08 1 1 -4.37114e-08 75 75)" fill="white"/>
<circle id="Ellipse 22_4" cx="5" cy="5" r="5" transform="matrix(4.37114e-08 1 1 -4.37114e-08 75 100)" fill="white"/>
<circle id="Ellipse 23_4" cx="5" cy="5" r="5" transform="matrix(4.37114e-08 1 1 -4.37114e-08 75 125)" fill="white"/>
<circle id="Ellipse 24_4" cx="5" cy="5" r="5" transform="matrix(4.37114e-08 1 1 -4.37114e-08 75 150)" fill="white"/>
<circle id="Ellipse 25_4" cx="5" cy="5" r="5" transform="matrix(4.37114e-08 1 1 -4.37114e-08 75 175)" fill="white"/>
</g>
</g>
</mask>
<g mask="url(#mask0_25_7391)">
<rect id="Rectangle 5" width="218" height="116" transform="matrix(4.37114e-08 1 1 -4.37114e-08 -11 -14)" fill="url(#paint0_linear_25_7391)"/>
</g>
</g>
<defs>
<linearGradient id="paint0_linear_25_7391" x1="17.5" y1="16" x2="186.5" y2="99" gradientUnits="userSpaceOnUse">
<stop stop-color="white"/>
<stop offset="1" stop-color="#458A42" stop-opacity="0.12"/>
</linearGradient>
</defs>
</svg>
